<?xml version="1.0" standalone="no"?><!DOCTYPE svg PUBLIC "-//W3C//DTD SVG 1.1//EN" "http://www.w3.org/Graphics/SVG/1.1/DTD/svg11.dtd"><svg t="1779373294308" class="icon" viewBox="0 0 1024 1024" version="1.1" xmlns="http://www.w3.org/2000/svg" p-id="1975" xmlns:xlink="http://www.w3.org/1999/xlink" width="200" height="200"><path d="M514.4 877.8c-49.7 0-97.9-9.7-143.2-28.9-43.8-18.5-83.2-45.1-117-78.9-33.8-33.8-60.3-73.1-78.9-117-19.2-45.4-28.9-93.6-28.9-143.2s9.7-97.9 28.9-143.2c18.5-43.8 45.1-83.2 78.9-117s73.1-60.3 117-78.9c45.4-19.2 93.6-28.9 143.2-28.9s97.9 9.7 143.2 28.9c43.8 18.5 83.2 45.1 117 78.9s60.3 73.1 78.9 117c19.2 45.4 28.9 93.6 28.9 143.2s-9.7 97.9-28.9 143.2c-18.5 43.8-45.1 83.2-78.9 117-33.8 33.8-73.1 60.3-117 78.9-45.3 19.1-93.5 28.9-143.2 28.9z m0-693.6c-87 0-168.7 33.9-230.2 95.4s-95.4 143.2-95.4 230.2 33.9 168.7 95.4 230.2 143.2 95.4 230.2 95.4 168.7-33.9 230.2-95.4S840 596.8 840 509.8s-33.9-168.7-95.4-230.2c-61.4-61.5-143.2-95.4-230.2-95.4z" fill="#00D8FF" p-id="1976"></path><path d="M514.4 509.8m-277.4 0a277.4 277.4 0 1 0 554.8 0 277.4 277.4 0 1 0-554.8 0Z" fill="#FFFFFF" p-id="1977"></path><path d="M514.4 812c-40.8 0-80.4-8-117.6-23.8-36-15.2-68.3-37-96-64.7-27.7-27.7-49.5-60.1-64.7-96-15.8-37.3-23.8-76.8-23.8-117.6s8-80.4 23.8-117.6c15.2-36 37-68.3 64.7-96 27.7-27.7 60.1-49.5 96-64.7 37.3-15.8 76.8-23.8 117.6-23.8s80.4 8 117.6 23.8c36 15.2 68.3 37 96 64.7s49.5 60.1 64.7 96c15.8 37.3 23.8 76.8 23.8 117.6s-8 80.4-23.8 117.6c-15.2 36-37 68.3-64.7 96s-60.1 49.5-96 64.7C594.8 804 555.2 812 514.4 812z m0-554.9c-67.5 0-130.9 26.3-178.7 74-47.7 47.7-74 111.2-74 178.7s26.3 130.9 74 178.7c47.7 47.7 111.2 74 178.7 74s130.9-26.3 178.7-74c47.7-47.7 74-111.2 74-178.7s-26.3-130.9-74-178.7c-47.7-47.7-111.2-74-178.7-74z" fill="#F1F2F2" p-id="1978"></path><path d="M544.8 479.4L504.6 274l-33.7 172.3-83-65.7 55.6 102.9L259 519.6l205.4 40.2 40.2 205.4L538.3 593l83 65.7-55.6-103 184.5-36.1z" fill="#F1F2F2" p-id="1979"></path><path d="M318.3 706c0.9 0.2 5.2-3.3 13.1-10.3l202.3-160.1-56.5-45.2-150.5 204.4c-6.4 7.3-9.2 11.1-8.4 11.2z" fill="#55FDC3" p-id="1980"></path><path d="M710.9 313.3c-0.6-0.5-4.9 2.7-13 9.7L488.8 479.7c-8.7 6.9-13.3 17.1-13.6 30.6-0.3 10.4 3.8 19.8 10.5 26.8l0.3 0.3 0.7 0.7c0.2 0.2 0.4 0.4 0.7 0.6 0.2 0.2 0.5 0.4 0.7 0.7 0.2 0.2 0.5 0.4 0.7 0.6 0.3 0.2 0.5 0.4 0.8 0.6 0.2 0.2 0.5 0.4 0.7 0.6 0.3 0.2 0.5 0.4 0.8 0.6 0.2 0.2 0.5 0.4 0.7 0.5 0.3 0.2 0.6 0.4 0.8 0.6 0.3 0.2 0.5 0.3 0.8 0.5s0.6 0.3 0.9 0.5 0.5 0.3 0.8 0.5 0.6 0.3 0.9 0.5c0.3 0.1 0.5 0.3 0.8 0.4 0.3 0.1 0.6 0.3 0.9 0.4 0.3 0.1 0.6 0.3 0.8 0.4 0.3 0.1 0.6 0.3 1 0.4 0.3 0.1 0.6 0.2 0.8 0.3 0.3 0.1 0.7 0.2 1 0.3l0.9 0.3c0.3 0.1 0.7 0.2 1 0.3s0.6 0.2 0.9 0.2c0.4 0.1 0.7 0.2 1.1 0.3 0.3 0.1 0.6 0.1 0.9 0.2 0.4 0.1 0.7 0.1 1.1 0.2 0.3 0 0.6 0.1 0.8 0.1 0.4 0.1 0.8 0.1 1.2 0.2 0.3 0 0.5 0.1 0.8 0.1 0.4 0 0.9 0.1 1.3 0.1 0.2 0 0.5 0 0.7 0.1 0.7 0 1.4 0.1 2 0.1 11.9 0 22.6-5.4 29.7-13.9 70.1-93.1 122.7-162.9 157.7-209.4 3.2-4.3 10.4-12 9.5-12.7z" fill="#00A5FF" p-id="1981"></path><path d="M513.3 508.7m-23.4 0a23.4 23.4 0 1 0 46.8 0 23.4 23.4 0 1 0-46.8 0Z" fill="#FFFFFF" p-id="1982"></path></svg>